<svg aria-hidden="true" style="position: absolute; width: 0; height: 0; overflow: hidden;" version="1.1" xmlns="http://www.w3.org/2000/svg" xmlns:xlink="http://www.w3.org/1999/xlink">
<defs>
<symbol id="icon-money" viewBox="0 0 38 32">
<path d="M36.002 23.010l0.057-17.089-31.050 0.019-0.001-1.96h32.992v19.031l-1.998-0.001zM34.995 26.017l-1.997-0.002 0.057-17.089-31.050 0.020-0.001-1.96h32.992v19.031zM32.053 28.020h-32.053v-18.030h32.053v18.030zM30.049 11.931h-28.046v14.086h28.045v-14.086zM27.045 24.515c0 0.177 0.044 0.342 0.101 0.5h-11.12c2.766 0 5.009-2.69 5.009-6.010s-2.243-6.010-5.009-6.010h11.119c-0.057 0.158-0.101 0.323-0.101 0.501 0 0.83 0.672 1.502 1.502 1.502 0.178 0 0.343-0.044 0.501-0.101v8.215c-0.158-0.056-0.323-0.101-0.501-0.101-0.829 0.001-1.501 0.674-1.501 1.504zM25.041 16.919c-0.83 0-1.502 0.896-1.502 2.003s0.672 2.003 1.502 2.003 1.502-0.896 1.502-2.003-0.672-2.003-1.502-2.003zM18.123 15.394c0.015 0.029 0.027 0.068 0.037 0.116 0.011 0.048 0.018 0.109 0.021 0.182 0.005 0.073 0.007 0.164 0.007 0.273 0 0.121-0.003 0.224-0.009 0.307-0.007 0.084-0.018 0.153-0.031 0.207-0.016 0.055-0.036 0.095-0.062 0.119-0.027 0.025-0.064 0.038-0.11 0.038s-0.118-0.029-0.219-0.087c-0.101-0.059-0.224-0.121-0.369-0.189s-0.315-0.131-0.507-0.187-0.402-0.084-0.632-0.084c-0.18 0-0.336 0.021-0.469 0.065-0.134 0.044-0.246 0.104-0.335 0.181s-0.157 0.17-0.2 0.277c-0.044 0.108-0.066 0.223-0.066 0.343 0 0.18 0.049 0.335 0.147 0.467s0.229 0.248 0.395 0.35c0.165 0.103 0.352 0.198 0.56 0.288s0.421 0.185 0.638 0.284c0.217 0.101 0.43 0.214 0.639 0.342 0.209 0.127 0.395 0.279 0.557 0.456 0.163 0.178 0.295 0.386 0.395 0.626s0.15 0.522 0.15 0.848c0 0.425-0.080 0.799-0.238 1.119-0.158 0.321-0.373 0.59-0.645 0.805s-0.588 0.376-0.951 0.484c-0.046 0.014-0.096 0.020-0.143 0.031v1.094h-0.985v-0.965c-0.013 0-0.024 0.003-0.037 0.003-0.279 0-0.539-0.023-0.779-0.068s-0.452-0.101-0.635-0.164c-0.184-0.064-0.337-0.132-0.46-0.202s-0.212-0.132-0.266-0.186-0.093-0.132-0.116-0.234-0.035-0.25-0.035-0.442c0-0.129 0.004-0.238 0.013-0.325 0.008-0.088 0.022-0.159 0.041-0.214 0.019-0.054 0.044-0.093 0.075-0.116 0.031-0.022 0.068-0.034 0.109-0.034 0.059 0 0.141 0.034 0.248 0.104 0.106 0.068 0.243 0.145 0.41 0.228s0.366 0.159 0.598 0.228c0.231 0.069 0.5 0.104 0.804 0.104 0.2 0 0.38-0.024 0.538-0.072s0.293-0.116 0.404-0.203c0.11-0.088 0.194-0.197 0.253-0.326s0.088-0.274 0.088-0.433c0-0.184-0.051-0.342-0.15-0.473-0.1-0.132-0.23-0.248-0.391-0.351s-0.343-0.198-0.547-0.287c-0.205-0.090-0.415-0.185-0.632-0.285s-0.428-0.214-0.632-0.341c-0.204-0.127-0.387-0.279-0.547-0.457-0.16-0.177-0.291-0.387-0.391-0.628-0.1-0.242-0.15-0.532-0.15-0.87 0-0.388 0.072-0.729 0.216-1.022 0.144-0.294 0.338-0.538 0.582-0.732s0.532-0.339 0.863-0.435c0.17-0.049 0.346-0.085 0.527-0.109v-1.035h0.985v1.035c0.039 0.005 0.078 0.003 0.117 0.009 0.192 0.029 0.372 0.068 0.539 0.118 0.166 0.050 0.314 0.105 0.443 0.168s0.215 0.113 0.258 0.155c0.039 0.037 0.067 0.072 0.082 0.102zM11.018 19.005c0 3.319 2.242 6.010 5.008 6.010h-11.119c0.056-0.158 0.101-0.323 0.101-0.5 0-0.83-0.673-1.503-1.502-1.503-0.178 0-0.343 0.045-0.501 0.101v-8.215c0.158 0.057 0.323 0.101 0.501 0.101 0.83 0 1.502-0.672 1.502-1.502 0-0.178-0.045-0.343-0.101-0.501h11.119c-2.766-0.001-5.008 2.69-5.008 6.009zM7.011 16.919c-0.83 0-1.502 0.896-1.502 2.003s0.673 2.003 1.502 2.003c0.83 0 1.502-0.896 1.502-2.003s-0.672-2.003-1.502-2.003z"></path>
</symbol>
<symbol id="icon-target" viewBox="0 0 32 32">
<path d="M28.122 3.584l-2.147 1.898-1.303 0.020-2.73 2.855c1.76 1.87 2.846 4.383 2.846 7.154 0 5.773-4.681 10.455-10.455 10.455s-10.454-4.682-10.454-10.455c0-5.774 4.681-10.455 10.454-10.455 2.645 0 5.053 0.989 6.894 2.608l2.635-2.635 0.002-1.161 2.022-2.335-0.002 2.079 2.238-0.028zM20.885 9.414l-2.658 2.659c0.9 0.977 1.463 2.27 1.463 3.703 0 3.025-2.451 5.476-5.476 5.476s-5.477-2.451-5.477-5.476c0-3.024 2.452-5.477 5.477-5.477 1.231 0 2.355 0.421 3.271 1.107l2.686-2.686c-1.569-1.35-3.605-2.171-5.838-2.171-4.949 0-8.961 4.013-8.961 8.962s4.012 8.96 8.961 8.96 8.961-4.012 8.961-8.96c-0.001-2.358-0.919-4.497-2.409-6.097zM14.172 17.352c-0.824 0-1.493-0.668-1.493-1.493s0.669-1.494 1.493-1.494c0.104 0 0.196 0.039 0.295 0.060l2.313-2.313c-0.728-0.511-1.609-0.816-2.566-0.816-2.475 0-4.48 2.007-4.48 4.481s2.006 4.48 4.48 4.48 4.48-2.006 4.48-4.48c0-1.158-0.451-2.203-1.173-2.999l-2.185 2.186c0.193 0.252 0.329 0.554 0.329 0.896 0.001 0.824-0.668 1.492-1.493 1.492zM9.855 26.748c0.297 0.15 0.602 0.285 0.915 0.406l-1.768 3.062c-0.138 0.238-0.442 0.318-0.681 0.182-0.237-0.137-0.319-0.441-0.182-0.68l1.716-2.97zM14.856 27.531v1.395c0 0.275-0.224 0.498-0.498 0.498-0.275 0-0.498-0.223-0.498-0.498v-1.395c0.166 0.008 0.33 0.025 0.498 0.025s0.332-0.017 0.498-0.025zM20.951 29.719c0.137 0.238 0.056 0.543-0.183 0.68s-0.542 0.057-0.681-0.182l-1.767-3.062c0.312-0.121 0.618-0.256 0.915-0.406l1.716 2.97z"></path>
</symbol>
<symbol id="icon-cart" viewBox="0 0 32 32">
<path d="M31.914 5.4l-2.914 11.6c0 0.139-0.028 0.27-0.078 0.389-0.102 0.24-0.293 0.432-0.532 0.533-0.12 0.051-0.252 0.078-0.39 0.078h-19l0.8 4h17.2c0.553 0 1 0.447 1 1s-0.447 1-1 1h-18c-0.553 0-1-0.447-1-1l-3.8-19h-3.2c-0.552 0-1-0.448-1-1s0.448-1 1-1h4c0.553 0 1 0.448 1 1l0.2 1h24.8c0.553 0 1 0.448 1 1 0 0.143-0.032 0.277-0.086 0.4zM8.6 16h3.4v-10h-5.4l2 10zM18 6h-5v10h5v-10zM24 6h-5v10h5v-10zM25 6v10h2.253l2.533-10h-4.786zM11 26c1.657 0 3 1.344 3 3s-1.343 3-3 3-3-1.344-3-3 1.343-3 3-3zM11 30c0.553 0 1-0.447 1-1s-0.447-1-1-1-1 0.447-1 1 0.447 1 1 1zM25 26c1.657 0 3 1.344 3 3s-1.343 3-3 3-3-1.344-3-3 1.343-3 3-3zM25 30c0.553 0 1-0.447 1-1s-0.447-1-1-1-1 0.447-1 1 0.447 1 1 1z"></path>
</symbol>
</defs>
</svg>
